<svg width="32" height="32" viewBox="0 0 32 32" fill="none" xmlns="http://www.w3.org/2000/svg">
<path d="M7.8787 17.3261C7.78853 17.5723 7.60593 17.7736 7.36969 17.8873C7.13345 18.001 6.8622 18.0181 6.61356 17.9349C6.36493 17.8518 6.15851 17.675 6.03816 17.442C5.91782 17.2091 5.89304 16.9385 5.96908 16.6876C6.00597 16.577 6.04764 16.4662 6.09397 16.3592C6.17455 16.1679 6.2934 15.904 6.45656 15.5918C6.78893 14.9673 7.30662 14.1354 8.07007 13.3034C9.61106 11.6214 12.1351 9.95556 15.9886 9.95556C19.842 9.95556 22.366 11.6214 23.907 13.3034C24.7289 14.2063 25.396 15.2388 25.8811 16.3592L25.9738 16.5869C25.9798 16.603 26 16.7077 26.0201 16.8084L26.0604 17.0058C26.0604 17.0058 26.2296 17.6766 25.3715 17.9607C25.1188 18.0451 24.8429 18.0259 24.6043 17.9073C24.3657 17.7888 24.1838 17.5805 24.0984 17.3281V17.3221L24.0863 17.2899L24.0239 17.1328C23.6282 16.2278 23.0872 15.3936 22.4224 14.6631C21.1937 13.3276 19.1854 11.9699 15.9886 11.9699C12.7917 11.9699 10.7834 13.3256 9.55466 14.6652C8.89005 15.395 8.34913 16.2285 7.95324 17.1328L7.8928 17.2899L7.8787 17.3261ZM11.9598 18.013C11.9598 16.9445 12.3843 15.9198 13.1398 15.1643C13.8953 14.4088 14.9201 13.9843 15.9886 13.9843C17.057 13.9843 18.0818 14.4088 18.8373 15.1643C19.5928 15.9198 20.0173 16.9445 20.0173 18.013C20.0173 19.0815 19.5928 20.1062 18.8373 20.8618C18.0818 21.6173 17.057 22.0418 15.9886 22.0418C14.9201 22.0418 13.8953 21.6173 13.1398 20.8618C12.3843 20.1062 11.9598 19.0815 11.9598 18.013Z" fill="black" fill-opacity="0.4"/>
</svg>
